<svg xmlns="http://www.w3.org/2000/svg" viewBox="0 0 800 1000" fill="none">
  <defs>
    <linearGradient id="bg" x1="80" y1="0" x2="720" y2="1000" gradientUnits="userSpaceOnUse">
      <stop stop-color="#111827"/>
      <stop offset="1" stop-color="#0B1220"/>
    </linearGradient>
    <linearGradient id="accent" x1="110" y1="120" x2="640" y2="740" gradientUnits="userSpaceOnUse">
      <stop stop-color="#0EA5E9" stop-opacity="0.95"/>
      <stop offset="1" stop-color="#38BDF8" stop-opacity="0.55"/>
    </linearGradient>
  </defs>
  <rect width="800" height="1000" rx="48" fill="url(#bg)"/>
  <circle cx="665" cy="156" r="160" fill="#0EA5E9" fill-opacity="0.15"/>
  <circle cx="142" cy="900" r="180" fill="#38BDF8" fill-opacity="0.08"/>
  <rect x="64" y="64" width="672" height="872" rx="36" fill="#0F172A" fill-opacity="0.92" stroke="#334155"/>
  <rect x="110" y="120" width="580" height="74" rx="24" fill="#111C31" stroke="#22324D"/>
  <circle cx="152" cy="157" r="8" fill="#22C55E"/>
  <text x="176" y="148" fill="#8EDFFF" font-family="Inter, Arial, sans-serif" font-size="22" font-weight="700">Budget</text>
  <text x="176" y="177" fill="#DDEAFE" font-family="Inter, Arial, sans-serif" font-size="16">Kedrix PFE flow</text>

  <rect x="110" y="224" width="580" height="320" rx="34" fill="url(#accent)" fill-opacity="0.18" stroke="#2C4E74"/>
  <text x="150" y="300" fill="white" font-family="Inter, Arial, sans-serif" font-size="44" font-weight="800">Daily budget</text>
  <text x="150" y="344" fill="#D8ECFE" font-family="Inter, Arial, sans-serif" font-size="24">Remaining / days</text>
  <rect x="150" y="392" width="208" height="16" rx="8" fill="#E2F4FF" fill-opacity="0.86"/>
  <rect x="150" y="426" width="280" height="16" rx="8" fill="#E2F4FF" fill-opacity="0.62"/>
  <rect x="150" y="460" width="174" height="16" rx="8" fill="#E2F4FF" fill-opacity="0.48"/>

  <rect x="110" y="590" width="580" height="290" rx="30" fill="#0C1526" stroke="#22324D"/>
  <text x="150" y="652" fill="#8EDFFF" font-family="Inter, Arial, sans-serif" font-size="20" font-weight="700">Key focus</text>
  <rect x="150" y="688" width="500" height="1" fill="#24334D"/>
  <circle cx="164" cy="744" r="7" fill="#38BDF8"/>
  <text x="188" y="752" fill="#E7F1FE" font-family="Inter, Arial, sans-serif" font-size="24">Available now</text>
  <circle cx="164" cy="794" r="7" fill="#38BDF8"/>
  <text x="188" y="802" fill="#E7F1FE" font-family="Inter, Arial, sans-serif" font-size="24">Safe pace</text>
  <circle cx="164" cy="844" r="7" fill="#38BDF8"/>
  <text x="188" y="852" fill="#E7F1FE" font-family="Inter, Arial, sans-serif" font-size="24">End-of-cycle view</text>
</svg>